Coordinates
version=1
nRows=26
nColumns=24
inDegrees=yes

Units are S.I. units (second, meters, Newtons, ...)
Angles are in degrees.

endheader
time	pelvis_tilt	pelvis_list	pelvis_rotation	pelvis_tx	pelvis_ty	pelvis_tz	hip_flexion_r	hip_adduction_r	hip_rotation_r	knee_angle_r	ankle_angle_r	subtalar_angle_r	mtp_angle_r	hip_flexion_l	hip_adduction_l	hip_rotation_l	knee_angle_l	ankle_angle_l	subtalar_angle_l	mtp_angle_l	lumbar_extension	lumbar_bending	lumbar_rotation
      2.13000000	      1.99433406	      2.40294761	      1.46222873	      0.98803187	      0.88763911	      0.06156256	     -4.67232324	     -2.82489131	     -2.40254125	    -56.05824311	     -4.87337332	     -5.87879398	     52.66673280	     18.79199766	      7.50544884	     -0.49003841	    -21.31529964	      9.85506481	     -7.62354008	     27.40411193	     -8.75182066	     -4.56446586	     -4.11475339
      2.13500000	      1.98188853	      2.73351732	      1.46542500	      0.99498990	      0.88820062	      0.06128180	     -3.49014749	     -3.11351801	     -2.18712048	    -57.90847439	     -5.13267857	     -6.83948489	     52.09489092	     18.35727958	      7.85576285	     -0.56738684	    -21.43103190	     10.36961263	     -7.45748153	     27.33008160	     -8.79683170	     -4.99261138	     -4.19499051
      2.14000000	      1.90691034	      3.03019586	      1.51983689	      1.00189510	      0.88871516	      0.06092405	     -2.23485062	     -3.37481946	     -2.02947125	    -59.71694761	     -4.90112094	     -7.17483206	     49.13438476	     17.98312326	      8.18321008	     -0.59709869	    -21.54276885	     10.99452367	     -7.06789106	     26.46670904	     -8.77550951	     -5.37431185	     -4.33550394
      2.14500000	      1.94511640	      3.27961653	      1.49569361	      1.00877459	      0.88949446	      0.06071531	     -1.10518478	     -3.56032821	     -1.78633908	    -61.38020693	     -4.54921219	     -7.69113338	     47.43033135	     17.42579614	      8.43479497	     -0.68320409	    -21.52986200	     11.56278994	     -6.81733578	     25.81185024	     -8.87841393	     -5.70583421	     -4.41384083
      2.15000000	      1.97760504	      3.48407274	      1.46208086	      1.01564363	      0.89034336	      0.06054236	      0.03138862	     -3.69543198	     -1.54646896	    -62.92099393	     -4.22473468	     -8.24193309	     47.07674132	     16.84873413	      8.62829016	     -0.80769899	    -21.45720793	     12.06352564	     -6.54212302	     25.77020612	     -8.97096922	     -5.98781459	     -4.45330384
      2.15500000	      1.96409237	      3.61489205	      1.47511045	      1.02245734	      0.89117885	      0.06033595	      1.21171442	     -3.74374968	     -1.35331507	    -64.38004219	     -3.47832281	     -8.39138297	     44.90056257	     16.30460238	      8.75554402	     -0.84381978	    -21.36425181	     12.68405012	     -6.08684100	     24.96222557	     -9.01514550	     -6.17934549	     -4.56010055
      2.16000000	      2.01597469	      3.71364622	      1.41374043	      1.02927261	      0.89218956	      0.06027320	      2.32405064	     -3.74297319	     -1.09680318	    -65.70722872	     -2.74684883	     -8.62251282	     43.97848739	     15.65923821	      8.81939721	     -0.99634054	    -21.20006749	     13.21953162	     -5.69571150	     24.54684340	     -9.12260541	     -6.34205875	     -4.62649998
      2.16500000	      2.07622867	      3.78447487	      1.30075693	      1.03605908	      0.89326046	      0.06023351	      3.44022822	     -3.71796204	     -0.81493326	    -66.93519237	     -1.97874603	     -8.82004464	     43.67545961	     14.96184990	      8.85497064	     -1.13134493	    -20.93648838	     13.65979076	     -5.44221279	     24.43104900	     -9.23401490	     -6.47015055	     -4.56194940
      2.17000000	      2.10079984	      3.80216739	      1.26492313	      1.04284089	      0.89432123	      0.06015086	      4.57135946	     -3.63121266	     -0.62959849	    -68.05921543	     -0.98535240	     -8.87015490	     42.04030082	     14.30214162	      8.84613571	     -1.18723503	    -20.69100468	     14.18549329	     -5.00239059	     23.72291340	     -9.30537949	     -6.53303576	     -4.62714046
      2.17500000	      2.17031208	      3.81449229	      1.17547210	      1.04962202	      0.89548984	      0.06013126	      5.65159765	     -3.54208865	     -0.41408072	    -69.05705568	     -0.05744426	     -8.94238724	     42.01934535	     13.55365538	      8.82176482	     -1.30788632	    -20.34632908	     14.54993373	     -4.71646267	     23.71209821	     -9.42390688	     -6.59021540	     -4.65564673
      2.18000000	      2.21633804	      3.77007437	      1.05107174	      1.05638751	      0.89665173	      0.06018235	      6.75933080	     -3.37925240	     -0.17805467	    -69.95242662	      0.91815618	     -8.98593449	     41.87142906	     12.82497059	      8.72748522	     -1.45586342	    -19.98687399	     14.94917684	     -4.35822640	     23.65246679	     -9.50544049	     -6.58722048	     -4.62115262
      2.18500000	      2.27736026	      3.67409131	      0.93861472	      1.06315566	      0.89785098	      0.06025136	      7.83539278	     -3.14948865	      0.02258172	    -70.74538655	      2.04931352	     -8.96519772	     40.20053707	     12.07083503	      8.58048913	     -1.57677244	    -19.62649517	     15.44467190	     -3.88552168	     22.72222433	     -9.59924457	     -6.52357745	     -4.57967047
      2.19000000	      2.33765906	      3.60733424	      0.84305866	      1.06995122	      0.89904445	      0.06025147	      8.89513570	     -2.97989836	      0.17703762	    -71.42705298	      3.07096432	     -8.93904193	     40.22531062	     11.28746950	      8.48462760	     -1.64944758	    -19.19472257	     15.77095667	     -3.65257772	     22.70838238	     -9.69507756	     -6.48413285	     -4.61614436
      2.19500000	      2.42642595	      3.49304995	      0.70036176	      1.07675520	      0.90030376	      0.06036476	      9.91346497	     -2.73585942	      0.35390216	    -71.99705474	      4.12897261	     -8.99768924	     39.28738554	     10.45172803	      8.32088995	     -1.78538305	    -18.71919845	     16.16135497	     -3.24931628	     22.20335549	     -9.81157441	     -6.39796402	     -4.56105233
      2.20000000	      2.45775199	      3.37877725	      0.59281810	      1.08354764	      0.90145390	      0.06037534	     10.97973059	     -2.51749901	      0.47745194	    -72.47146182	      5.12952049	     -9.01979146	     39.29158579	      9.67263074	      8.18353237	     -1.83111634	    -18.22785509	     16.41357335	     -3.07913072	     22.18480320	     -9.86386379	     -6.30040558	     -4.56138761
      2.20500000	      2.52113834	      3.24423224	      0.46034559	      1.09037144	      0.90265084	      0.06044679	     11.99015333	     -2.27037257	      0.59869269	    -72.83188825	      6.08736826	     -9.12468894	     39.08747992	      8.83593699	      8.01679428	     -1.91010135	    -17.69708230	     16.66209371	     -2.80459918	     22.09233357	     -9.94431884	     -6.18327624	     -4.49956585
      2.21000000	      2.55283459	      3.08960501	      0.42646276	      1.09718625	      0.90378429	      0.06035785	     12.99648920	     -2.03630818	      0.58538936	    -73.07342759	      6.96414843	     -9.38644040	     39.08699279	      8.03159756	      7.86133158	     -1.82491177	    -17.15601520	     16.85504460	     -2.74431732	     22.08152672	     -9.99944652	     -6.02582209	     -4.58674287
      2.21500000	      2.74271883	      2.92340248	      0.24295221	      1.10412972	      0.90513679	      0.06057248	     13.80788339	     -1.73592309	      0.72122098	    -73.20533854	      7.94233583	     -9.48163959	     37.88631839	      7.00769696	      7.64482884	     -2.03309899	    -16.53290033	     17.12882267	     -2.30098085	     21.66183359	    -10.20698030	     -5.88084498	     -4.53848474
      2.22000000	      2.73375050	      2.78513758	      0.20183401	      1.11092586	      0.90611455	      0.06046760	     14.83396621	     -1.53778985	      0.69228777	    -73.28461451	      8.75396241	     -9.72756446	     37.89095689	      6.23541892	      7.51673417	     -1.91701286	    -15.95948883	     17.27817010	     -2.28813934	     21.64788504	    -10.21432374	     -5.73789718	     -4.57437991
      2.22500000	      2.74041056	      2.63918208	      0.13410651	      1.11778963	      0.90707902	      0.06040998	     15.81506146	     -1.32772894	      0.67860604	    -73.26199249	      9.52205254	     -9.97753947	     37.86150441	      5.42859603	      7.37611964	     -1.83571549	    -15.35799425	     17.39740219	     -2.25217909	     21.62647854	    -10.22798219	     -5.58884153	     -4.61983221
      2.23000000	      2.90234420	      2.46586077	     -0.03289464	      1.12477424	      0.90824121	      0.06054174	     16.58966553	     -1.05411177	      0.74407492	    -73.13047739	     10.40714652	    -10.05558551	     35.84467410	      4.40051010	      7.18504756	     -1.95412419	    -14.66597664	     17.61289721	     -2.02915201	     21.01767061	    -10.39518027	     -5.42526055	     -4.54326837
      2.23500000	      2.88679217	      2.33809890	     -0.06130702	      1.13166442	      0.90906758	      0.06045348	     17.54591071	     -0.88677968	      0.67566903	    -72.93725789	     11.05560071	    -10.34571843	     35.85371731	      3.59753051	      7.06856302	     -1.84402667	    -14.01871197	     17.68629889	     -1.97917483	     21.01303270	    -10.38339483	     -5.29388170	     -4.63906620
      2.24000000	      3.05149783	      2.17457672	     -0.17479960	      1.13864524	      0.91011794	      0.06046144	     18.26191579	     -0.66271615	      0.65186425	    -72.60777028	     11.58263184	    -10.79265573	     35.63529115	      2.55518528	      6.91259602	     -1.85594496	    -13.29571839	     17.75332797	     -1.98771243	     20.97003542	    -10.56287246	     -5.12740171	     -4.63225522
      2.24500000	      3.02583202	      2.03442526	     -0.19673281	      1.14557620	      0.91080082	      0.06035471	     19.16768744	     -0.49827195	      0.56149250	    -72.23470537	     12.14643655	    -11.04323025	     35.59656750	      1.75554523	      6.78371198	     -1.74770944	    -12.63699920	     17.81050677	     -1.90670759	     20.96536587	    -10.53354226	     -4.97820882	     -4.71345040
      2.25000000	      3.24566411	      1.84786681	     -0.28102828	      1.15260999	      0.91180527	      0.06033186	     19.75178816	     -0.27524273	      0.47333478	    -71.71436990	     12.54129685	    -11.52333203	     35.20651206	      0.63621034	      6.60636023	     -1.75493864	    -11.87935235	     17.85823799	     -1.90971179	     20.91801662	    -10.76962103	     -4.78361580	     -4.74013242
      2.25500000	      3.37284107	      1.67213061	     -0.31296724	      1.15964132	      0.91259436	      0.06023527	     20.40686813	     -0.08581292	      0.35126311	    -71.12941211	     12.99510689	    -11.82054555	     34.74316670	     -0.36521610	      6.43881123	     -1.73049021	    -11.15926591	     17.91403141	     -1.80118275	     20.87455410	    -10.90551030	     -4.59305574	     -4.81008960
